<svg version="1.1" id="Layer_1" xmlns="http://www.w3.org/2000/svg" xmlns:xlink="http://www.w3.org/1999/xlink" x="0px" y="0px"
	 width="100%" viewBox="0 0 1008 1024" enable-background="new 0 0 1008 1024" xml:space="preserve">
<path fill="#000000" opacity="1.000000" stroke="none" 
	d="
M363.330444,598.988892 
	C363.333374,612.257019 363.333374,612.256592 350.313477,612.251160 
	C343.314056,612.248169 336.314575,612.255188 329.315186,612.241943 
	C323.044159,612.230103 322.876343,612.071899 322.876343,605.784851 
	C322.876373,550.122742 322.883575,494.460602 322.889557,438.798462 
	C322.890381,431.299072 323.027740,423.796509 322.845276,416.301636 
	C322.749451,412.365021 323.896484,410.646606 328.213287,410.664337 
	C371.042511,410.840363 413.872559,410.890930 456.702118,410.824738 
	C461.054535,410.818024 462.565460,412.230347 462.437561,416.607422 
	C462.169952,425.765503 462.360687,434.936859 462.355408,444.102783 
	C462.351257,451.321289 462.346100,451.350220 455.302338,451.352692 
	C426.971313,451.362640 398.640320,451.348755 370.309296,451.354065 
	C363.471680,451.355347 363.372345,451.454712 363.353271,458.407043 
	C363.331329,466.406311 363.658295,474.422241 363.233551,482.398987 
	C362.971191,487.326416 365.272125,488.513763 369.384918,488.515045 
	C378.041290,488.517670 386.697662,488.580353 395.354034,488.588196 
	C410.519470,488.601929 425.687103,488.738007 440.849030,488.507294 
	C445.552887,488.435730 447.403351,489.811066 447.218109,494.722778 
	C446.891663,503.376434 447.132721,512.051208 447.123657,520.717163 
	C447.115234,528.785156 447.036682,528.869934 439.115814,528.875427 
	C416.284363,528.891174 393.452911,528.895386 370.621460,528.906311 
	C363.365479,528.909790 363.349915,528.912781 363.345703,535.997253 
	C363.333313,556.828430 363.334442,577.659668 363.330444,598.988892 
z"/>
<path fill="#000000" opacity="1.000000" stroke="none" 
	d="
M835.370605,570.466614 
	C835.407898,551.683105 836.247314,533.359863 834.788879,515.053528 
	C833.713196,501.552094 827.810059,495.719513 814.232483,495.042999 
	C803.632568,494.514862 793.811462,496.043518 787.292725,505.687286 
	C783.845825,510.786621 782.314087,516.612854 782.284607,522.703003 
	C782.153198,549.865051 782.156006,577.027710 782.103149,604.190186 
	C782.087524,612.229736 782.076843,612.240723 774.084900,612.243347 
	C765.252563,612.246277 756.416687,612.074890 747.589478,612.282654 
	C743.391357,612.381409 741.652893,611.131531 741.664368,606.631409 
	C741.781189,560.970215 741.766602,515.308411 741.654114,469.647217 
	C741.644592,465.789246 742.997131,464.122101 746.759460,464.131561 
	C756.424194,464.155823 766.089172,464.142578 775.753906,464.117188 
	C778.847656,464.109039 780.317261,465.480194 780.217590,468.680420 
	C780.094421,472.636169 780.188171,476.598663 780.188171,481.457733 
	C784.041443,479.155701 785.587830,475.922394 788.019897,473.622803 
	C795.699097,466.361908 804.860229,462.348816 815.277161,461.252411 
	C829.592468,459.745667 843.556641,460.142609 856.100342,468.749786 
	C868.119507,476.997009 874.465149,488.664093 875.166382,502.784485 
	C876.894226,537.578186 875.507812,572.420959 875.915771,607.240662 
	C875.957581,610.813416 874.588806,612.325623 870.895264,612.270203 
	C860.565247,612.114868 850.230957,612.124084 839.900024,612.231201 
	C836.416809,612.267334 835.111633,610.700012 835.136230,607.422058 
	C835.227112,595.259094 835.265503,583.095703 835.370605,570.466614 
z"/>
<path fill="#000000" opacity="1.000000" stroke="none" 
	d="
M586.005859,612.214783 
	C582.007629,612.200012 578.507629,612.139771 575.008972,612.184509 
	C572.079041,612.222107 570.742920,610.857727 570.782776,607.936401 
	C570.838806,603.826111 570.796936,599.714478 570.796936,594.311768 
	C563.955383,602.472534 557.211853,608.830322 548.238586,612.016785 
	C529.524231,618.662537 511.507263,618.097717 495.238525,605.485413 
	C483.957825,596.740051 477.921631,584.540894 476.846893,570.667175 
	C474.219452,536.748901 476.291321,502.727905 475.663147,468.756866 
	C475.588196,464.706024 477.845978,464.078644 481.031281,464.080505 
	C490.863068,464.086273 500.696960,464.168365 510.525726,463.987305 
	C514.810181,463.908417 516.357300,465.504944 516.317078,469.862457 
	C516.141846,488.858063 516.237732,507.856171 516.244629,526.853394 
	C516.248291,537.018555 516.203247,547.184326 516.302673,557.348633 
	C516.426086,569.963379 521.540405,577.914856 531.159729,580.726257 
	C543.538818,584.344238 556.908203,580.164001 563.323547,570.602173 
	C567.351868,564.598145 568.909851,557.892944 568.899841,550.715942 
	C568.863159,524.386536 568.876221,498.056976 568.890503,471.727478 
	C568.894592,464.234802 569.048889,464.081055 576.346558,464.063354 
	C585.511719,464.041077 594.677979,464.145508 603.841858,464.037476 
	C607.661682,463.992462 609.144409,465.519318 609.138489,469.393890 
	C609.068726,515.220337 609.069763,561.047058 609.167908,606.873474 
	C609.176880,611.074890 607.521667,612.447083 603.499573,612.283447 
	C597.843018,612.053284 592.170410,612.218567 586.005859,612.214783 
z"/>
<path fill="#000000" opacity="1.000000" stroke="none" 
	d="
M194.210907,474.210693 
	C214.476852,453.942169 234.533401,433.963959 254.458771,413.855713 
	C257.133179,411.156738 259.900146,409.816010 263.694427,409.974670 
	C268.682251,410.183289 273.685730,410.061371 278.681793,410.011932 
	C281.615997,409.982880 282.961884,411.371277 282.903290,414.269562 
	C282.778931,420.423859 282.717773,426.579590 282.555634,432.732788 
	C282.491150,435.179443 280.468323,436.422180 278.966705,437.925964 
	C246.371262,470.569977 213.750992,503.189240 181.158005,535.835754 
	C156.689270,560.344727 132.231110,584.864380 107.835861,609.446411 
	C105.574623,611.724976 103.226212,613.036255 99.964096,612.947144 
	C94.971397,612.810852 89.972267,612.910339 84.975868,612.909058 
	C81.593643,612.908142 79.510986,611.620117 79.948792,607.833252 
	C79.967789,607.668945 79.954185,607.500366 79.949974,607.333862 
	C79.481880,588.836609 79.531502,588.886353 92.583183,575.852478 
	C126.401184,542.080750 160.171173,508.260864 194.210907,474.210693 
z"/>
<path fill="#000000" opacity="1.000000" stroke="none" 
	d="
M635.571838,505.999878 
	C635.574097,493.508484 635.720886,481.514526 635.502808,469.527191 
	C635.426208,465.313385 637.059143,463.958069 641.042725,464.029297 
	C649.700378,464.184052 658.367554,464.257446 667.021118,464.015289 
	C671.780273,463.882111 673.812134,465.583984 673.264343,470.412384 
	C673.005310,472.695190 673.219849,475.031677 673.219849,478.029938 
	C676.167847,476.764465 677.605896,474.719727 679.246460,473.033264 
	C690.250183,461.721527 704.206848,460.027557 718.919617,460.697083 
	C720.898987,460.787140 721.377502,461.956879 721.386719,463.686951 
	C721.446960,475.000824 721.498962,486.315094 721.648560,497.627991 
	C721.698120,501.374603 719.434692,501.567108 716.692444,501.181610 
	C710.689514,500.337769 704.729919,500.854309 698.851013,502.019592 
	C686.315186,504.504364 679.123230,512.468933 676.604248,524.731873 
	C675.772705,528.780029 675.303833,532.920837 675.318848,537.123108 
	C675.400940,560.106262 675.228760,583.091003 675.444458,606.072388 
	C675.489746,610.893127 673.998657,612.489441 669.203430,612.327148 
	C659.887024,612.011841 650.548889,612.038208 641.228516,612.273132 
	C636.801514,612.384705 635.533020,610.715210 635.548340,606.427856 
	C635.667725,573.118958 635.589661,539.809265 635.571838,505.999878 
z"/>
<path fill="#000000" opacity="1.000000" stroke="none" 
	d="
M902.921753,498.000000 
	C902.917969,488.341797 903.045837,479.180756 902.851196,470.026611 
	C902.762329,465.850586 904.116394,463.908295 908.537720,463.986511 
	C918.358948,464.160370 928.185791,464.108002 938.009155,464.016968 
	C941.734619,463.982452 943.339844,465.314362 943.331970,469.290070 
	C943.241150,515.247498 943.244690,561.205261 943.344788,607.162720 
	C943.353516,611.176270 941.761353,612.361938 937.999451,612.296875 
	C928.344360,612.129822 918.677979,611.998474 909.029968,612.298706 
	C904.110718,612.451782 902.791382,610.584839 902.811829,605.900757 
	C902.968201,570.101074 902.911865,534.300354 902.921753,498.000000 
z"/>
<path fill="#000000" opacity="1.000000" stroke="none" 
	d="
M101.304794,527.304993 
	C94.734932,533.849731 88.415283,540.144592 82.319321,546.216736 
	C79.445938,544.979858 79.887794,543.119385 79.882996,541.559082 
	C79.844559,529.062134 79.976555,516.563538 79.807610,504.068878 
	C79.758720,500.453552 81.597267,498.133728 83.849251,495.871948 
	C97.012146,482.651672 110.182472,469.438721 123.373352,456.246338 
	C137.388962,442.229156 151.491928,428.298462 165.408234,414.183594 
	C168.183945,411.368256 171.039169,409.917908 175.036453,409.970123 
	C187.031616,410.126862 199.030273,410.004364 211.027466,410.031311 
	C212.646332,410.034973 214.407730,409.728760 216.392944,412.072723 
	C178.151642,450.362152 139.853333,488.708649 101.304794,527.304993 
z"/>
<path fill="#000000" opacity="1.000000" stroke="none" 
	d="
M201.596863,555.597168 
	C228.148621,529.048828 254.450684,502.750763 280.703461,476.502014 
	C283.437714,478.639221 282.913239,480.760284 282.910675,482.662628 
	C282.893921,495.144043 282.761108,507.625458 282.793335,520.106567 
	C282.799622,522.538086 281.704010,524.146912 280.117767,525.731873 
	C251.969910,553.858582 223.838013,582.001343 195.719421,610.157349 
	C194.266098,611.612610 192.778336,612.853333 190.586044,612.856445 
	C177.101318,612.875610 163.616577,612.911987 150.131866,612.906433 
	C149.155930,612.906006 148.117554,612.784119 146.510025,610.793945 
	C164.710083,592.557617 183.028625,574.202576 201.596863,555.597168 
z"/>
<path fill="#000000" opacity="1.000000" stroke="none" 
	d="
M943.228149,414.255981 
	C943.259216,424.201324 943.146545,433.672546 943.328979,443.138031 
	C943.402710,446.961060 942.130981,448.481445 938.171692,448.404694 
	C928.041992,448.208344 917.904358,448.230896 907.773376,448.390991 
	C904.036194,448.450043 902.796814,446.901031 902.846008,443.353027 
	C902.975037,434.051819 902.966248,424.747467 902.891846,415.445343 
	C902.865295,412.134247 904.065247,410.629425 907.568665,410.676086 
	C917.866516,410.813263 928.167236,410.724548 938.466858,410.741638 
	C940.669922,410.745270 942.966248,410.676758 943.228149,414.255981 
z"/>
<path fill="#000000" opacity="1.000000" stroke="none" 
	d="
M118.324509,421.324707 
	C106.037437,433.636169 93.998604,445.696075 82.183960,457.531372 
	C79.254921,456.283569 79.878128,454.392975 79.872360,452.865173 
	C79.825317,440.403137 79.890541,427.940613 79.828979,415.478668 
	C79.814201,412.485474 80.259735,410.102509 83.963646,410.101135 
	C97.587784,410.096039 111.211967,410.084625 124.835976,410.125793 
	C125.584404,410.128052 126.331459,410.584442 127.841034,411.079102 
	C125.135124,415.244690 121.509460,417.867828 118.324509,421.324707 
z"/>
<path fill="#000000" opacity="1.000000" stroke="none" 
	d="
M256.000549,612.943848 
	C248.973495,612.558350 242.351044,613.636780 236.025604,612.356262 
	C251.512314,596.905884 266.705994,581.747925 282.191376,566.298889 
	C282.855530,566.522400 282.657318,567.916931 282.653900,568.952576 
	C282.610229,582.257690 282.425720,595.562439 282.416412,608.867432 
	C282.413849,612.503357 280.143311,612.848083 277.478058,612.867126 
	C270.485657,612.917236 263.492950,612.922058 256.000549,612.943848 
z"/>
</svg>