<svg width="864" height="203" xmlns="http://www.w3.org/2000/svg" xml:space="preserve" enable-background="new 0 0 1008 1024" version="1.1">

 <g>
  <title>Layer 1</title>
  <path id="svg_1" d="m283.52378,189.02682c0.00293,13.26813 0.00293,13.2677 -13.01696,13.26227c-6.99942,-0.00299 -13.99891,0.00403 -20.99829,-0.00922c-6.27103,-0.01184 -6.43885,-0.17004 -6.43885,-6.45709c0.00003,-55.66211 0.00724,-111.32425 0.01322,-166.98639c0.00082,-7.49939 0.13818,-15.00195 -0.04428,-22.49682c-0.09583,-3.93662 1.0512,-5.65503 5.36801,-5.6373c42.82922,0.17602 85.65927,0.22659 128.48883,0.1604c4.35241,-0.00672 5.86334,1.40561 5.73544,5.78268c-0.26761,9.15808 -0.07687,18.32944 -0.08215,27.49536c-0.00415,7.21851 -0.00931,7.24744 -7.05307,7.24991c-28.33103,0.00995 -56.66202,-0.00394 -84.99304,0.00137c-6.83762,0.00129 -6.93696,0.10065 -6.95603,7.05298c-0.02194,7.99927 0.30503,16.0152 -0.11972,23.99195c-0.26236,4.92743 2.03858,6.11477 6.15137,6.11605c8.65637,0.00263 17.31274,0.06531 25.96911,0.07316c15.16544,0.01373 30.33307,0.14981 45.495,-0.08091c4.70386,-0.07156 6.55432,1.30378 6.36908,6.21549c-0.32645,8.65365 -0.08539,17.32843 -0.09445,25.99438c-0.00843,8.068 -0.08698,8.15277 -8.00785,8.15827c-22.83145,0.01574 -45.6629,0.01996 -68.49435,0.03088c-7.25598,0.00348 -7.27154,0.00647 -7.27576,7.09094c-0.01239,20.83118 -0.01126,41.66242 -0.01526,62.99164z" fill="#000000"/>
  <path id="svg_2" d="m755.56394,160.50454c0.0373,-18.78351 0.87671,-37.10675 -0.58172,-55.41308c-1.07568,-13.50144 -6.97882,-19.33402 -20.5564,-20.01053c-10.59991,-0.52814 -20.42102,1.00052 -26.93975,10.64429c-3.44691,5.09933 -4.97864,10.92556 -5.00812,17.01571c-0.13141,27.16205 -0.1286,54.32471 -0.18146,81.48719c-0.01563,8.03955 -0.02631,8.05053 -8.01825,8.05316c-8.83234,0.00293 -17.66821,-0.16846 -26.49542,0.0393c-4.19812,0.09876 -5.93659,-1.15112 -5.92511,-5.65124c0.11682,-45.66119 0.10223,-91.323 -0.01026,-136.98419c-0.00952,-3.85797 1.34302,-5.52512 5.10535,-5.51566c9.66473,0.02426 19.32971,0.01102 28.99445,-0.01437c3.09375,-0.00815 4.56335,1.363 4.46368,4.56323c-0.12317,3.95575 -0.02942,7.91824 -0.02942,12.77731c3.85327,-2.30203 5.39966,-5.53534 7.83173,-7.83493c7.6792,-7.26089 16.84033,-11.27398 27.25726,-12.37039c14.31531,-1.50674 28.27948,-1.1098 40.82318,7.49738c12.01917,8.24722 18.36481,19.9143 19.06604,34.0347c1.72785,34.7937 0.34143,69.63647 0.74939,104.45617c0.04181,3.57276 -1.32696,5.08496 -5.02051,5.02954c-10.33001,-0.15533 -20.6643,-0.14612 -30.99524,-0.039c-3.48321,0.03613 -4.78839,-1.53119 -4.76379,-4.80914c0.09088,-12.16297 0.12927,-24.32636 0.23437,-36.95545z" fill="#000000"/>
  <path id="svg_3" d="m506.1992,202.25271c-3.99823,-0.01477 -7.49823,-0.07501 -10.99689,-0.03027c-2.92993,0.0376 -4.26605,-1.32678 -4.22619,-4.24811c0.05603,-4.11029 0.01416,-8.22192 0.01416,-13.62463c-6.84156,8.16076 -13.58509,14.51855 -22.55835,17.70502c-18.71436,6.64575 -36.73133,6.08093 -53.00007,-6.53138c-11.28069,-8.74536 -17.31689,-20.94452 -18.39163,-34.81823c-2.62744,-33.91828 -0.55557,-67.93927 -1.18374,-101.91031c-0.07495,-4.05085 2.18283,-4.67823 5.36813,-4.67636c9.83179,0.00576 19.66568,0.08785 29.49445,-0.09321c4.28445,-0.07888 5.83157,1.51764 5.79135,5.87516c-0.17523,18.9956 -0.07935,37.99371 -0.07245,56.99093c0.00366,10.16516 -0.04138,20.33094 0.05804,30.49524c0.12342,12.61475 5.23773,20.56623 14.85706,23.37763c12.37909,3.61798 25.74847,-0.56226 32.16382,-10.12409c4.02832,-6.00402 5.5863,-12.70923 5.57629,-19.88623c-0.03668,-26.3294 -0.02362,-52.65896 -0.00934,-78.98846c0.00409,-7.49268 0.15839,-7.64643 7.45606,-7.66413c9.16516,-0.02227 18.33142,0.08216 27.4953,-0.02587c3.81982,-0.04502 5.30255,1.48184 5.29663,5.35641c-0.06976,45.82645 -0.06873,91.65317 0.02942,137.47958c0.00897,4.20142 -1.64624,5.57361 -5.66834,5.40998c-5.65655,-0.23017 -11.32916,-0.06488 -17.49371,-0.06867z" fill="#000000"/>
  <path id="svg_4" d="m114.40425,64.24862c20.26594,-20.26852 40.32249,-40.24673 60.24786,-60.35498c2.67441,-2.69897 5.44138,-4.0397 9.23566,-3.88104c4.98782,0.20862 9.9913,0.0867 14.98736,0.03726c2.93421,-0.02905 4.28009,1.35935 4.2215,4.25763c-0.12436,6.1543 -0.18552,12.31003 -0.34766,18.46323c-0.06448,2.44665 -2.08731,3.68939 -3.58893,5.19317c-32.59544,32.64402 -65.21571,65.26328 -97.80869,97.90979c-24.46874,24.50898 -48.9269,49.02863 -73.32215,73.61066c-2.26124,2.27857 -4.60965,3.58984 -7.87176,3.50073c-4.9927,-0.13629 -9.99183,-0.0368 -14.98823,-0.03808c-3.38223,-0.00092 -5.46488,-1.28894 -5.02708,-5.07581c0.019,-0.1643 0.00539,-0.33288 0.00118,-0.49939c-0.46809,-18.49725 -0.41847,-18.44751 12.63321,-31.48138c33.818,-33.77173 67.58799,-67.59162 101.62773,-101.64179z" fill="#000000"/>
  <path id="svg_5" d="m555.76518,96.03781c0.00226,-12.4914 0.14905,-24.48535 -0.06903,-36.47269c-0.0766,-4.21381 1.55633,-5.56912 5.53992,-5.49789c8.65765,0.15475 17.32482,0.22815 25.97839,-0.01401c4.75915,-0.13318 6.79101,1.56869 6.24322,6.39709c-0.25903,2.28281 -0.04449,4.6193 -0.04449,7.61756c2.948,-1.26548 4.38605,-3.31021 6.02661,-4.99668c11.00372,-11.31173 24.96039,-13.0057 39.67316,-12.33618c1.97937,0.09006 2.45788,1.2598 2.4671,2.98987c0.06024,11.31387 0.11224,22.62814 0.26184,33.94104c0.04956,3.74661 -2.21387,3.93912 -4.95612,3.55362c-6.00293,-0.84384 -11.96252,-0.3273 -17.84143,0.83798c-12.53582,2.48477 -19.72778,10.44934 -22.24676,22.71228c-0.83155,4.04816 -1.30042,8.18897 -1.2854,12.39124c0.08209,22.98315 -0.09009,45.96789 0.12561,68.94928c0.04529,4.82074 -1.4458,6.41705 -6.24103,6.25476c-9.31641,-0.31531 -18.65454,-0.28894 -27.97491,-0.05402c-4.42701,0.11158 -5.6955,-1.55792 -5.68018,-5.84527c0.11939,-33.3089 0.04132,-66.6186 0.0235,-100.42798z" fill="#000000"/>
  <path id="svg_6" d="m823.11509,88.03793c-0.00378,-9.6582 0.12409,-18.81924 -0.07055,-27.97339c-0.08887,-4.17602 1.26519,-6.11831 5.68652,-6.0401c9.82123,0.17386 19.64807,0.12149 29.47143,0.03046c3.72547,-0.03452 5.33069,1.29739 5.32282,5.2731c-0.09082,45.95743 -0.08728,91.91519 0.01282,137.87265c0.00873,4.01355 -1.58344,5.19922 -5.34534,5.13416c-9.65509,-0.16706 -19.32147,-0.29841 -28.96948,0.00183c-4.91925,0.15307 -6.23859,-1.71387 -6.21814,-6.39795c0.15637,-35.79969 0.10004,-71.60041 0.10992,-107.90076z" fill="#000000"/>
  <path id="svg_7" d="m21.49813,117.34292c-6.56986,6.54474 -12.88951,12.8396 -18.98547,18.91175c-2.87338,-1.23688 -2.43153,-3.09736 -2.43632,-4.65766c-0.03844,-12.49695 0.09356,-24.99554 -0.07539,-37.4902c-0.04889,-3.61533 1.78966,-5.93515 4.04164,-8.19693c13.1629,-13.22028 26.33322,-26.43323 39.5241,-39.62561c14.01561,-14.01718 28.11858,-27.94788 42.03488,-42.06275c2.77571,-2.81533 5.63094,-4.26568 9.62822,-4.21347c11.99517,0.15674 23.99382,0.03424 35.99102,0.06119c1.61886,0.00366 3.38026,-0.30255 5.36547,2.04141c-38.2413,38.28943 -76.53961,76.63593 -115.08815,115.23227z" fill="#000000"/>
  <path id="svg_8" d="m121.7902,145.6351c26.55176,-26.54834 52.85382,-52.84641 79.1066,-79.09516c2.73425,2.13721 2.20978,4.25827 2.20722,6.16062c-0.01676,12.48141 -0.14957,24.96283 -0.11734,37.44394c0.00628,2.43152 -1.08933,4.04034 -2.67557,5.6253c-28.14786,28.12671 -56.27976,56.26947 -84.39835,84.42548c-1.45332,1.45526 -2.94108,2.69598 -5.13338,2.6991c-13.48472,0.01916 -26.96946,0.05554 -40.45417,0.04998c-0.97594,-0.00042 -2.01432,-0.12231 -3.62184,-2.11248c18.20005,-18.23633 36.5186,-36.59137 55.08683,-55.19678z" fill="#000000"/>
  <path id="svg_9" d="m863.42149,4.29391c0.03107,9.94534 -0.08161,19.41657 0.10083,28.88205c0.07373,3.82303 -1.198,5.34342 -5.15729,5.26666c-10.1297,-0.19635 -20.26733,-0.17379 -30.39831,-0.0137c-3.73719,0.05905 -4.97657,-1.48996 -4.92737,-5.03796c0.12903,-9.30121 0.12024,-18.60556 0.04584,-27.90769c-0.02656,-3.31109 1.1734,-4.81591 4.67682,-4.76925c10.29785,0.13717 20.59857,0.04846 30.89819,0.06555c2.20306,0.00363 4.49939,-0.06488 4.76129,3.51434z" fill="#000000"/>
  <path id="svg_10" d="m38.51785,11.36264c-12.28707,12.31146 -24.32591,24.37137 -36.14055,36.20666c-2.92904,-1.2478 -2.30583,-3.1384 -2.3116,-4.6662c-0.04704,-12.46203 0.01818,-24.92456 -0.04338,-37.3865c-0.01478,-2.9932 0.43076,-5.37616 4.13467,-5.37754c13.62413,-0.00509 27.24832,-0.0165 40.87233,0.02466c0.74842,0.00226 1.49548,0.45865 3.00505,0.95331c-2.70591,4.16559 -6.33157,6.78873 -9.51652,10.24561z" fill="#000000"/>
  <path id="svg_11" d="m176.19389,202.98178c-7.02705,-0.3855 -13.64951,0.69293 -19.97495,-0.58759c15.48671,-15.45038 30.68039,-30.60833 46.16578,-46.05737c0.66415,0.22351 0.46594,1.61804 0.46252,2.65369c-0.04367,13.30511 -0.22818,26.60986 -0.23749,39.91485c-0.00256,3.63593 -2.2731,3.98065 -4.93835,3.9997c-6.9924,0.05011 -13.98511,0.05493 -21.47751,0.07672z" fill="#000000"/>
 </g>
</svg>