<svg width="27" height="27" viewBox="0 0 27 27" fill="none" xmlns="http://www.w3.org/2000/svg">
<path d="M25.25 22.5833V20.3888C25.25 19.2983 24.5861 18.3178 23.5737 17.9128L20.8615 16.8279C19.5738 16.3129 18.1063 16.8708 17.486 18.1113L17.25 18.5833C17.25 18.5833 13.9167 17.9167 11.25 15.25C8.58333 12.5833 7.91667 9.25 7.91667 9.25L8.38869 9.01399C9.62917 8.39375 10.1871 6.92618 9.67206 5.63848L8.58718 2.92629C8.18221 1.91387 7.20166 1.25 6.11125 1.25H3.91667C2.44391 1.25 1.25 2.44391 1.25 3.91667C1.25 15.6987 10.8013 25.25 22.5833 25.25C24.0561 25.25 25.25 24.0561 25.25 22.5833Z" stroke="#141718" stroke-width="2.5" stroke-linejoin="round"/>
</svg>
