<svg width="32" height="32" viewBox="0 0 32 32" fill="none" xmlns="http://www.w3.org/2000/svg">
<path d="M26.6667 16V24C26.6667 26.9455 24.2789 29.3333 21.3334 29.3333H10.6667C7.72119 29.3333 5.33337 26.9455 5.33337 24V16" stroke="#141718" stroke-width="2.5" stroke-linejoin="round"/>
<path d="M22.3584 2.66699H9.64171C7.21857 2.66699 5.03955 4.32667 4.13962 6.85772L3.12898 9.70016C2.82305 10.5606 2.61158 11.4813 2.83472 12.3668C3.36318 14.464 5.07768 16.0003 7.11114 16.0003C9.56574 16.0003 11.5556 13.7617 11.5556 11.0003C11.5556 13.7617 13.5454 16.0003 16 16.0003C18.4546 16.0003 20.4445 13.7617 20.4445 11.0003C20.4445 13.7617 22.4343 16.0003 24.8889 16.0003C26.9224 16.0003 28.6369 14.464 29.1653 12.3668C29.3885 11.4813 29.177 10.5606 28.8711 9.70016L27.8604 6.85772C26.9605 4.32666 24.7815 2.66699 22.3584 2.66699Z" stroke="#141718" stroke-width="2.5" stroke-linejoin="round"/>
<path d="M12 25.333C12 23.1239 13.7909 21.333 16 21.333C18.2091 21.333 20 23.1239 20 25.333V29.333H12V25.333Z" stroke="#141718" stroke-width="2.5" stroke-linejoin="round"/>
</svg>
